{
    "asset" : {
        "generator" : "Khronos glTF Blender I/O v0.9.36",
        "version" : "2.0"
    },
    "scene" : 0,
    "scenes" : [
        {
            "name" : "Scene",
            "nodes" : [
                0,
                1,
                2,
                3
            ]
        }
    ],
    "nodes" : [
        {
            "name" : "Light",
            "rotation" : [
                0.16907575726509094,
                0.7558803558349609,
                -0.27217137813568115,
                0.570947527885437
            ],
            "translation" : [
                4.076245307922363,
                5.903861999511719,
                -1.0054539442062378
            ]
        },
        {
            "name" : "Camera",
            "rotation" : [
                0.483536034822464,
                0.33687159419059753,
                -0.20870360732078552,
                0.7804827094078064
            ],
            "translation" : [
                7.358891487121582,
                4.958309173583984,
                6.925790786743164
            ]
        },
        {
            "mesh" : 0,
            "name" : "group1580007276",
            "rotation" : [
                0.7071068286895752,
                0,
                0,
                0.7071067094802856
            ]
        },
        {
            "name" : "NurbsPath"
        }
    ],
    "materials" : [
        {
            "doubleSided" : true,
            "name" : "mat5",
            "pbrMetallicRoughness" : {
                "baseColorFactor" : [
                    0.009999999776482582,
                    0.6100000143051147,
                    0.8999999761581421,
                    1
                ],
                "metallicFactor" : 0,
                "roughnessFactor" : 1
            }
        },
        {
            "doubleSided" : true,
            "name" : "mat0",
            "pbrMetallicRoughness" : {
                "baseColorFactor" : [
                    0.7300000190734863,
                    0.4099999964237213,
                    0.7799999713897705,
                    1
                ],
                "metallicFactor" : 0,
                "roughnessFactor" : 1
            }
        },
        {
            "doubleSided" : true,
            "name" : "mat4",
            "pbrMetallicRoughness" : {
                "baseColorFactor" : [
                    0,
                    0.7400000095367432,
                    0.8299999833106995,
                    1
                ],
                "metallicFactor" : 0,
                "roughnessFactor" : 1
            }
        },
        {
            "doubleSided" : true,
            "name" : "mat3",
            "pbrMetallicRoughness" : {
                "baseColorFactor" : [
                    0.5,
                    0.8700000047683716,
                    0.9200000166893005,
                    1
                ],
                "metallicFactor" : 0,
                "roughnessFactor" : 1
            }
        },
        {
            "doubleSided" : true,
            "name" : "mat2",
            "pbrMetallicRoughness" : {
                "baseColorFactor" : [
                    0.4000000059604645,
                    0.23000000417232513,
                    0.7200000286102295,
                    1
                ],
                "metallicFactor" : 0,
                "roughnessFactor" : 1
            }
        },
        {
            "doubleSided" : true,
            "name" : "mat1",
            "pbrMetallicRoughness" : {
                "baseColorFactor" : [
                    0.6100000143051147,
                    0.15000000596046448,
                    0.6899999976158142,
                    1
                ],
                "metallicFactor" : 0,
                "roughnessFactor" : 1
            }
        },
        {
            "doubleSided" : true,
            "name" : "mat23",
            "pbrMetallicRoughness" : {
                "baseColorFactor" : [
                    0.10000000149011612,
                    0.10000000149011612,
                    0.10000000149011612,
                    1
                ],
                "metallicFactor" : 0,
                "roughnessFactor" : 1
            }
        }
    ],
    "meshes" : [
        {
            "name" : "group1580007276",
            "primitives" : [
                {
                    "attributes" : {
                        "POSITION" : 0,
                        "NORMAL" : 1,
                        "TEXCOORD_0" : 2
                    },
                    "indices" : 3,
                    "material" : 0
                },
                {
                    "attributes" : {
                        "POSITION" : 4,
                        "NORMAL" : 5,
                        "TEXCOORD_0" : 6
                    },
                    "indices" : 7,
                    "material" : 1
                },
                {
                    "attributes" : {
                        "POSITION" : 8,
                        "NORMAL" : 9,
                        "TEXCOORD_0" : 10
                    },
                    "indices" : 11,
                    "material" : 2
                },
                {
                    "attributes" : {
                        "POSITION" : 12,
                        "NORMAL" : 13,
                        "TEXCOORD_0" : 14
                    },
                    "indices" : 15,
                    "material" : 3
                },
                {
                    "attributes" : {
                        "POSITION" : 16,
                        "NORMAL" : 17,
                        "TEXCOORD_0" : 18
                    },
                    "indices" : 19,
                    "material" : 4
                },
                {
                    "attributes" : {
                        "POSITION" : 20,
                        "NORMAL" : 21,
                        "TEXCOORD_0" : 22
                    },
                    "indices" : 23,
                    "material" : 5
                },
                {
                    "attributes" : {
                        "POSITION" : 24,
                        "NORMAL" : 25,
                        "TEXCOORD_0" : 26
                    },
                    "indices" : 23,
                    "material" : 6
                }
            ]
        }
    ],
    "accessors" : [
        {
            "bufferView" : 0,
            "componentType" : 5126,
            "count" : 132,
            "max" : [
                0.09993070363998413,
                0.17921850085258484,
                0.3081217110157013
            ],
            "min" : [
                -0.09993073344230652,
                -0.17921850085258484,
                -0.3125714957714081
            ],
            "type" : "VEC3"
        },
        {
            "bufferView" : 1,
            "componentType" : 5126,
            "count" : 132,
            "type" : "VEC3"
        },
        {
            "bufferView" : 2,
            "componentType" : 5126,
            "count" : 132,
            "type" : "VEC2"
        },
        {
            "bufferView" : 3,
            "componentType" : 5123,
            "count" : 138,
            "type" : "SCALAR"
        },
        {
            "bufferView" : 4,
            "componentType" : 5126,
            "count" : 36,
            "max" : [
                0.04786781966686249,
                0.007201582193374634,
                0.3125714063644409
            ],
            "min" : [
                -0.05246115103363991,
                -0.17921850085258484,
                -0.19459690153598785
            ],
            "type" : "VEC3"
        },
        {
            "bufferView" : 5,
            "componentType" : 5126,
            "count" : 36,
            "type" : "VEC3"
        },
        {
            "bufferView" : 6,
            "componentType" : 5126,
            "count" : 36,
            "type" : "VEC2"
        },
        {
            "bufferView" : 7,
            "componentType" : 5123,
            "count" : 36,
            "type" : "SCALAR"
        },
        {
            "bufferView" : 8,
            "componentType" : 5126,
            "count" : 117,
            "max" : [
                0.04438591003417969,
                0.17921850085258484,
                0.3125714063644409
            ],
            "min" : [
                -0.05246115103363991,
                -0.17921850085258484,
                -0.3125714957714081
            ],
            "type" : "VEC3"
        },
        {
            "bufferView" : 9,
            "componentType" : 5126,
            "count" : 117,
            "type" : "VEC3"
        },
        {
            "bufferView" : 10,
            "componentType" : 5126,
            "count" : 117,
            "type" : "VEC2"
        },
        {
            "bufferView" : 11,
            "componentType" : 5123,
            "count" : 123,
            "type" : "SCALAR"
        },
        {
            "bufferView" : 12,
            "componentType" : 5126,
            "count" : 114,
            "max" : [
                0.09993070363998413,
                0.17921850085258484,
                0.3081217110157013
            ],
            "min" : [
                -0.09993073344230652,
                -0.16664959490299225,
                -0.3125714957714081
            ],
            "type" : "VEC3"
        },
        {
            "bufferView" : 13,
            "componentType" : 5126,
            "count" : 114,
            "type" : "VEC3"
        },
        {
            "bufferView" : 14,
            "componentType" : 5126,
            "count" : 114,
            "type" : "VEC2"
        },
        {
            "bufferView" : 15,
            "componentType" : 5123,
            "count" : 114,
            "type" : "SCALAR"
        },
        {
            "bufferView" : 16,
            "componentType" : 5126,
            "count" : 15,
            "max" : [
                0.04786781966686249,
                -0.015128109604120255,
                0.3125714063644409
            ],
            "min" : [
                -0.0386965312063694,
                -0.17921850085258484,
                -0.19459690153598785
            ],
            "type" : "VEC3"
        },
        {
            "bufferView" : 17,
            "componentType" : 5126,
            "count" : 15,
            "type" : "VEC3"
        },
        {
            "bufferView" : 18,
            "componentType" : 5126,
            "count" : 15,
            "type" : "VEC2"
        },
        {
            "bufferView" : 19,
            "componentType" : 5123,
            "count" : 15,
            "type" : "SCALAR"
        },
        {
            "bufferView" : 20,
            "componentType" : 5126,
            "count" : 9,
            "max" : [
                0.09993070363998413,
                0.008389919996261597,
                0.3081217110157013
            ],
            "min" : [
                0.00783306360244751,
                -0.13039159774780273,
                -0.017690539360046387
            ],
            "type" : "VEC3"
        },
        {
            "bufferView" : 21,
            "componentType" : 5126,
            "count" : 9,
            "type" : "VEC3"
        },
        {
            "bufferView" : 22,
            "componentType" : 5126,
            "count" : 9,
            "type" : "VEC2"
        },
        {
            "bufferView" : 23,
            "componentType" : 5123,
            "count" : 9,
            "type" : "SCALAR"
        },
        {
            "bufferView" : 24,
            "componentType" : 5126,
            "count" : 9,
            "max" : [
                0.032377030700445175,
                0.07340077310800552,
                -0.17543819546699524
            ],
            "min" : [
                -0.05050766095519066,
                0.015208209864795208,
                -0.21456339955329895
            ],
            "type" : "VEC3"
        },
        {
            "bufferView" : 25,
            "componentType" : 5126,
            "count" : 9,
            "type" : "VEC3"
        },
        {
            "bufferView" : 26,
            "componentType" : 5126,
            "count" : 9,
            "type" : "VEC2"
        }
    ],
    "bufferViews" : [
        {
            "buffer" : 0,
            "byteLength" : 1584,
            "byteOffset" : 0
        },
        {
            "buffer" : 0,
            "byteLength" : 1584,
            "byteOffset" : 1584
        },
        {
            "buffer" : 0,
            "byteLength" : 1056,
            "byteOffset" : 3168
        },
        {
            "buffer" : 0,
            "byteLength" : 276,
            "byteOffset" : 4224
        },
        {
            "buffer" : 0,
            "byteLength" : 432,
            "byteOffset" : 4500
        },
        {
            "buffer" : 0,
            "byteLength" : 432,
            "byteOffset" : 4932
        },
        {
            "buffer" : 0,
            "byteLength" : 288,
            "byteOffset" : 5364
        },
        {
            "buffer" : 0,
            "byteLength" : 72,
            "byteOffset" : 5652
        },
        {
            "buffer" : 0,
            "byteLength" : 1404,
            "byteOffset" : 5724
        },
        {
            "buffer" : 0,
            "byteLength" : 1404,
            "byteOffset" : 7128
        },
        {
            "buffer" : 0,
            "byteLength" : 936,
            "byteOffset" : 8532
        },
        {
            "buffer" : 0,
            "byteLength" : 246,
            "byteOffset" : 9468
        },
        {
            "buffer" : 0,
            "byteLength" : 1368,
            "byteOffset" : 9716
        },
        {
            "buffer" : 0,
            "byteLength" : 1368,
            "byteOffset" : 11084
        },
        {
            "buffer" : 0,
            "byteLength" : 912,
            "byteOffset" : 12452
        },
        {
            "buffer" : 0,
            "byteLength" : 228,
            "byteOffset" : 13364
        },
        {
            "buffer" : 0,
            "byteLength" : 180,
            "byteOffset" : 13592
        },
        {
            "buffer" : 0,
            "byteLength" : 180,
            "byteOffset" : 13772
        },
        {
            "buffer" : 0,
            "byteLength" : 120,
            "byteOffset" : 13952
        },
        {
            "buffer" : 0,
            "byteLength" : 30,
            "byteOffset" : 14072
        },
        {
            "buffer" : 0,
            "byteLength" : 108,
            "byteOffset" : 14104
        },
        {
            "buffer" : 0,
            "byteLength" : 108,
            "byteOffset" : 14212
        },
        {
            "buffer" : 0,
            "byteLength" : 72,
            "byteOffset" : 14320
        },
        {
            "buffer" : 0,
            "byteLength" : 18,
            "byteOffset" : 14392
        },
        {
            "buffer" : 0,
            "byteLength" : 108,
            "byteOffset" : 14412
        },
        {
            "buffer" : 0,
            "byteLength" : 108,
            "byteOffset" : 14520
        },
        {
            "buffer" : 0,
            "byteLength" : 72,
            "byteOffset" : 14628
        }
    ],
    "buffers" : [
        {
            "byteLength" : 14700,
            "uri" : "data:application/octet-stream;base64,"
        }
    ]
}
