{
    "asset" : {
        "generator" : "Khronos glTF Blender I/O v0.9.36",
        "version" : "2.0"
    },
    "scene" : 0,
    "scenes" : [
        {
            "name" : "Scene",
            "nodes" : [
                0,
                1,
                2,
                11
            ]
        }
    ],
    "nodes" : [
        {
            "name" : "Light",
            "rotation" : [
                0.16907575726509094,
                0.7558803558349609,
                -0.27217137813568115,
                0.570947527885437
            ],
            "translation" : [
                4.076245307922363,
                5.903861999511719,
                -1.0054539442062378
            ]
        },
        {
            "name" : "Camera",
            "rotation" : [
                0.483536034822464,
                0.33687159419059753,
                -0.20870360732078552,
                0.7804827094078064
            ],
            "translation" : [
                7.358891487121582,
                4.958309173583984,
                6.925790786743164
            ]
        },
        {
            "name" : "Armature",
            "translation" : [
                -3.6898765563964844,
                1.485992431640625,
                -26.554336547851562
            ]
        },
        {
            "name" : "Bone",
            "rotation" : [
                -0.05444197729229927,
                0.015014810487627983,
                0.009084999561309814,
                0.9983627796173096
            ],
            "scale" : [
                0.9999999403953552,
                1,
                1
            ],
            "translation" : [
                7.395283319056034e-08,
                6.7684712409973145,
                -7.450580596923828e-09
            ]
        },
        {
            "children" : [
                3
            ],
            "name" : "Bone.001",
            "rotation" : [
                -0.0005221485043875873,
                0.9878891706466675,
                0.06315084546804428,
                0.14172780513763428
            ],
            "scale" : [
                1,
                0.9999999403953552,
                1
            ],
            "translation" : [
                6.119026618733869e-09,
                7.945271968841553,
                4.220620297701316e-09
            ]
        },
        {
            "children" : [
                4
            ],
            "name" : "Bone.002",
            "rotation" : [
                6.301308919098858e-10,
                0.9986029267311096,
                0.05284169688820839,
                -7.539242830034709e-08
            ],
            "translation" : [
                -1.2663805648571724e-07,
                13.0753755569458,
                4.2613777395672514e-08
            ]
        },
        {
            "children" : [
                5
            ],
            "name" : "Bone.003",
            "rotation" : [
                2.309783697640455e-09,
                0.9986029267311096,
                0.05284169316291809,
                4.365031713859935e-08
            ],
            "translation" : [
                0,
                12.426647186279297,
                0
            ]
        },
        {
            "children" : [
                6
            ],
            "name" : "Bone.004",
            "translation" : [
                0,
                4.5625457763671875,
                0
            ]
        },
        {
            "children" : [
                7
            ],
            "name" : "Bone.005",
            "translation" : [
                0,
                8.685962677001953,
                0
            ]
        },
        {
            "children" : [
                8
            ],
            "name" : "Bone.006",
            "rotation" : [
                0,
                0.7071068286895752,
                0.7071068286895752,
                0
            ],
            "scale" : [
                1,
                0.9999999403953552,
                1
            ],
            "translation" : [
                3.6033411026000977,
                -1.4761710166931152,
                -54.79840850830078
            ]
        },
        {
            "mesh" : 0,
            "name" : "Sphere",
            "rotation" : [
                0.6524973511695862,
                -0.0023974361829459667,
                -0.00018061063019558787,
                0.7577872276306152
            ],
            "scale" : [
                0.10000000149011612,
                0.10000000149011612,
                0.10000000894069672
            ],
            "skin" : 0,
            "translation" : [
                3.6898765563964844,
                -1.485992431640625,
                -26.08482551574707
            ]
        },
        {
            "children" : [
                10,
                9
            ],
            "name" : "Armature.001",
            "translation" : [
                -3.6898765563964844,
                1.485992431640625,
                26.08482551574707
            ]
        }
    ],
    "animations" : [
        {
            "channels" : [
                {
                    "sampler" : 0,
                    "target" : {
                        "node" : 3,
                        "path" : "rotation"
                    }
                },
                {
                    "sampler" : 1,
                    "target" : {
                        "node" : 4,
                        "path" : "rotation"
                    }
                },
                {
                    "sampler" : 2,
                    "target" : {
                        "node" : 5,
                        "path" : "rotation"
                    }
                },
                {
                    "sampler" : 3,
                    "target" : {
                        "node" : 6,
                        "path" : "rotation"
                    }
                },
                {
                    "sampler" : 4,
                    "target" : {
                        "node" : 7,
                        "path" : "rotation"
                    }
                },
                {
                    "sampler" : 5,
                    "target" : {
                        "node" : 8,
                        "path" : "rotation"
                    }
                },
                {
                    "sampler" : 6,
                    "target" : {
                        "node" : 9,
                        "path" : "rotation"
                    }
                }
            ],
            "name" : "Idle Swim",
            "samplers" : [
                {
                    "input" : 30,
                    "interpolation" : "CUBICSPLINE",
                    "output" : 31
                },
                {
                    "input" : 30,
                    "interpolation" : "CUBICSPLINE",
                    "output" : 32
                },
                {
                    "input" : 30,
                    "interpolation" : "CUBICSPLINE",
                    "output" : 33
                },
                {
                    "input" : 30,
                    "interpolation" : "CUBICSPLINE",
                    "output" : 34
                },
                {
                    "input" : 30,
                    "interpolation" : "CUBICSPLINE",
                    "output" : 35
                },
                {
                    "input" : 30,
                    "interpolation" : "CUBICSPLINE",
                    "output" : 36
                },
                {
                    "input" : 30,
                    "interpolation" : "CUBICSPLINE",
                    "output" : 37
                }
            ]
        }
    ],
    "materials" : [
        {
            "doubleSided" : true,
            "name" : "White",
            "pbrMetallicRoughness" : {
                "baseColorFactor" : [
                    0.8999999761581421,
                    0.8999999761581421,
                    0.8999999761581421,
                    1
                ],
                "metallicFactor" : 0,
                "roughnessFactor" : 1
            }
        },
        {
            "doubleSided" : true,
            "name" : "Green",
            "pbrMetallicRoughness" : {
                "baseColorFactor" : [
                    0.6700000166893005,
                    0.6184099912643433,
                    0.15410000085830688,
                    1
                ],
                "metallicFactor" : 0,
                "roughnessFactor" : 1
            }
        },
        {
            "doubleSided" : true,
            "name" : "Orange",
            "pbrMetallicRoughness" : {
                "baseColorFactor" : [
                    0.6600000262260437,
                    0.3569500148296356,
                    0.032999999821186066,
                    1
                ],
                "metallicFactor" : 0,
                "roughnessFactor" : 1
            }
        },
        {
            "doubleSided" : true,
            "name" : "LightOrange",
            "pbrMetallicRoughness" : {
                "baseColorFactor" : [
                    0.8600000143051147,
                    0.6239299774169922,
                    0.3353999853134155,
                    1
                ],
                "metallicFactor" : 0,
                "roughnessFactor" : 1
            }
        },
        {
            "doubleSided" : true,
            "name" : "Black",
            "pbrMetallicRoughness" : {
                "baseColorFactor" : [
                    0.14000000059604645,
                    0.14000000059604645,
                    0.14000000059604645,
                    1
                ],
                "metallicFactor" : 0,
                "roughnessFactor" : 1
            }
        }
    ],
    "meshes" : [
        {
            "name" : "Sphere",
            "primitives" : [
                {
                    "attributes" : {
                        "POSITION" : 0,
                        "NORMAL" : 1,
                        "TEXCOORD_0" : 2,
                        "JOINTS_0" : 3,
                        "WEIGHTS_0" : 4
                    },
                    "indices" : 5,
                    "material" : 0
                },
                {
                    "attributes" : {
                        "POSITION" : 6,
                        "NORMAL" : 7,
                        "TEXCOORD_0" : 8,
                        "JOINTS_0" : 9,
                        "WEIGHTS_0" : 10
                    },
                    "indices" : 11,
                    "material" : 1
                },
                {
                    "attributes" : {
                        "POSITION" : 12,
                        "NORMAL" : 13,
                        "TEXCOORD_0" : 14,
                        "JOINTS_0" : 15,
                        "WEIGHTS_0" : 16
                    },
                    "indices" : 17,
                    "material" : 2
                },
                {
                    "attributes" : {
                        "POSITION" : 18,
                        "NORMAL" : 19,
                        "TEXCOORD_0" : 20,
                        "JOINTS_0" : 21,
                        "WEIGHTS_0" : 22
                    },
                    "indices" : 23,
                    "material" : 3
                },
                {
                    "attributes" : {
                        "POSITION" : 24,
                        "NORMAL" : 25,
                        "TEXCOORD_0" : 26,
                        "JOINTS_0" : 27,
                        "WEIGHTS_0" : 28
                    },
                    "indices" : 5,
                    "material" : 4
                }
            ]
        }
    ],
    "skins" : [
        {
            "inverseBindMatrices" : 29,
            "joints" : [
                9,
                8,
                7,
                6,
                5,
                4,
                3
            ],
            "name" : "Armature.001"
        }
    ],
    "accessors" : [
        {
            "bufferView" : 0,
            "componentType" : 5126,
            "count" : 128,
            "max" : [
                23.150699615478516,
                -264.0429992675781,
                -37.268798828125
            ],
            "min" : [
                -23.150699615478516,
                -295.1310119628906,
                -70.3583984375
            ],
            "type" : "VEC3"
        },
        {
            "bufferView" : 1,
            "componentType" : 5126,
            "count" : 128,
            "type" : "VEC3"
        },
        {
            "bufferView" : 2,
            "componentType" : 5126,
            "count" : 128,
            "type" : "VEC2"
        },
        {
            "bufferView" : 3,
            "componentType" : 5123,
            "count" : 128,
            "type" : "VEC4"
        },
        {
            "bufferView" : 4,
            "componentType" : 5126,
            "count" : 128,
            "type" : "VEC4"
        },
        {
            "bufferView" : 5,
            "componentType" : 5123,
            "count" : 480,
            "type" : "SCALAR"
        },
        {
            "bufferView" : 6,
            "componentType" : 5126,
            "count" : 133,
            "max" : [
                37.46839904785156,
                323.75360107421875,
                13.94320011138916
            ],
            "min" : [
                -37.46839904785156,
                -342.885009765625,
                -135.54200744628906
            ],
            "type" : "VEC3"
        },
        {
            "bufferView" : 7,
            "componentType" : 5126,
            "count" : 133,
            "type" : "VEC3"
        },
        {
            "bufferView" : 8,
            "componentType" : 5126,
            "count" : 133,
            "type" : "VEC2"
        },
        {
            "bufferView" : 9,
            "componentType" : 5123,
            "count" : 133,
            "type" : "VEC4"
        },
        {
            "bufferView" : 10,
            "componentType" : 5126,
            "count" : 133,
            "type" : "VEC4"
        },
        {
            "bufferView" : 11,
            "componentType" : 5123,
            "count" : 540,
            "type" : "SCALAR"
        },
        {
            "bufferView" : 12,
            "componentType" : 5126,
            "count" : 212,
            "max" : [
                57.41600036621094,
                329.5003356933594,
                116.75700378417969
            ],
            "min" : [
                -57.41600036621094,
                -349.77301025390625,
                -72.1393814086914
            ],
            "type" : "VEC3"
        },
        {
            "bufferView" : 13,
            "componentType" : 5126,
            "count" : 212,
            "type" : "VEC3"
        },
        {
            "bufferView" : 14,
            "componentType" : 5126,
            "count" : 212,
            "type" : "VEC2"
        },
        {
            "bufferView" : 15,
            "componentType" : 5123,
            "count" : 212,
            "type" : "VEC4"
        },
        {
            "bufferView" : 16,
            "componentType" : 5126,
            "count" : 212,
            "type" : "VEC4"
        },
        {
            "bufferView" : 17,
            "componentType" : 5123,
            "count" : 771,
            "type" : "SCALAR"
        },
        {
            "bufferView" : 18,
            "componentType" : 5126,
            "count" : 98,
            "max" : [
                57.41600036621094,
                259.71337890625,
                124.41053771972656
            ],
            "min" : [
                -57.41600036621094,
                -349.77301025390625,
                -135.54200744628906
            ],
            "type" : "VEC3"
        },
        {
            "bufferView" : 19,
            "componentType" : 5126,
            "count" : 98,
            "type" : "VEC3"
        },
        {
            "bufferView" : 20,
            "componentType" : 5126,
            "count" : 98,
            "type" : "VEC2"
        },
        {
            "bufferView" : 21,
            "componentType" : 5123,
            "count" : 98,
            "type" : "VEC4"
        },
        {
            "bufferView" : 22,
            "componentType" : 5126,
            "count" : 98,
            "type" : "VEC4"
        },
        {
            "bufferView" : 23,
            "componentType" : 5123,
            "count" : 324,
            "type" : "SCALAR"
        },
        {
            "bufferView" : 24,
            "componentType" : 5126,
            "count" : 128,
            "max" : [
                26.23040008544922,
                -268.0050048828125,
                -41.44380187988281
            ],
            "min" : [
                -26.23040008544922,
                -292.875,
                -67.91549682617188
            ],
            "type" : "VEC3"
        },
        {
            "bufferView" : 25,
            "componentType" : 5126,
            "count" : 128,
            "type" : "VEC3"
        },
        {
            "bufferView" : 26,
            "componentType" : 5126,
            "count" : 128,
            "type" : "VEC2"
        },
        {
            "bufferView" : 27,
            "componentType" : 5123,
            "count" : 128,
            "type" : "VEC4"
        },
        {
            "bufferView" : 28,
            "componentType" : 5126,
            "count" : 128,
            "type" : "VEC4"
        },
        {
            "bufferView" : 29,
            "componentType" : 5126,
            "count" : 7,
            "type" : "MAT4"
        },
        {
            "bufferView" : 30,
            "componentType" : 5126,
            "count" : 7,
            "max" : [
                1.25
            ],
            "min" : [
                0
            ],
            "type" : "SCALAR"
        },
        {
            "bufferView" : 31,
            "componentType" : 5126,
            "count" : 21,
            "type" : "VEC4"
        },
        {
            "bufferView" : 32,
            "componentType" : 5126,
            "count" : 21,
            "type" : "VEC4"
        },
        {
            "bufferView" : 33,
            "componentType" : 5126,
            "count" : 21,
            "type" : "VEC4"
        },
        {
            "bufferView" : 34,
            "componentType" : 5126,
            "count" : 21,
            "type" : "VEC4"
        },
        {
            "bufferView" : 35,
            "componentType" : 5126,
            "count" : 21,
            "type" : "VEC4"
        },
        {
            "bufferView" : 36,
            "componentType" : 5126,
            "count" : 21,
            "type" : "VEC4"
        },
        {
            "bufferView" : 37,
            "componentType" : 5126,
            "count" : 21,
            "type" : "VEC4"
        }
    ],
    "bufferViews" : [
        {
            "buffer" : 0,
            "byteLength" : 1536,
            "byteOffset" : 0
        },
        {
            "buffer" : 0,
            "byteLength" : 1536,
            "byteOffset" : 1536
        },
        {
            "buffer" : 0,
            "byteLength" : 1024,
            "byteOffset" : 3072
        },
        {
            "buffer" : 0,
            "byteLength" : 1024,
            "byteOffset" : 4096
        },
        {
            "buffer" : 0,
            "byteLength" : 2048,
            "byteOffset" : 5120
        },
        {
            "buffer" : 0,
            "byteLength" : 960,
            "byteOffset" : 7168
        },
        {
            "buffer" : 0,
            "byteLength" : 1596,
            "byteOffset" : 8128
        },
        {
            "buffer" : 0,
            "byteLength" : 1596,
            "byteOffset" : 9724
        },
        {
            "buffer" : 0,
            "byteLength" : 1064,
            "byteOffset" : 11320
        },
        {
            "buffer" : 0,
            "byteLength" : 1064,
            "byteOffset" : 12384
        },
        {
            "buffer" : 0,
            "byteLength" : 2128,
            "byteOffset" : 13448
        },
        {
            "buffer" : 0,
            "byteLength" : 1080,
            "byteOffset" : 15576
        },
        {
            "buffer" : 0,
            "byteLength" : 2544,
            "byteOffset" : 16656
        },
        {
            "buffer" : 0,
            "byteLength" : 2544,
            "byteOffset" : 19200
        },
        {
            "buffer" : 0,
            "byteLength" : 1696,
            "byteOffset" : 21744
        },
        {
            "buffer" : 0,
            "byteLength" : 1696,
            "byteOffset" : 23440
        },
        {
            "buffer" : 0,
            "byteLength" : 3392,
            "byteOffset" : 25136
        },
        {
            "buffer" : 0,
            "byteLength" : 1542,
            "byteOffset" : 28528
        },
        {
            "buffer" : 0,
            "byteLength" : 1176,
            "byteOffset" : 30072
        },
        {
            "buffer" : 0,
            "byteLength" : 1176,
            "byteOffset" : 31248
        },
        {
            "buffer" : 0,
            "byteLength" : 784,
            "byteOffset" : 32424
        },
        {
            "buffer" : 0,
            "byteLength" : 784,
            "byteOffset" : 33208
        },
        {
            "buffer" : 0,
            "byteLength" : 1568,
            "byteOffset" : 33992
        },
        {
            "buffer" : 0,
            "byteLength" : 648,
            "byteOffset" : 35560
        },
        {
            "buffer" : 0,
            "byteLength" : 1536,
            "byteOffset" : 36208
        },
        {
            "buffer" : 0,
            "byteLength" : 1536,
            "byteOffset" : 37744
        },
        {
            "buffer" : 0,
            "byteLength" : 1024,
            "byteOffset" : 39280
        },
        {
            "buffer" : 0,
            "byteLength" : 1024,
            "byteOffset" : 40304
        },
        {
            "buffer" : 0,
            "byteLength" : 2048,
            "byteOffset" : 41328
        },
        {
            "buffer" : 0,
            "byteLength" : 448,
            "byteOffset" : 43376
        },
        {
            "buffer" : 0,
            "byteLength" : 28,
            "byteOffset" : 43824
        },
        {
            "buffer" : 0,
            "byteLength" : 336,
            "byteOffset" : 43852
        },
        {
            "buffer" : 0,
            "byteLength" : 336,
            "byteOffset" : 44188
        },
        {
            "buffer" : 0,
            "byteLength" : 336,
            "byteOffset" : 44524
        },
        {
            "buffer" : 0,
            "byteLength" : 336,
            "byteOffset" : 44860
        },
        {
            "buffer" : 0,
            "byteLength" : 336,
            "byteOffset" : 45196
        },
        {
            "buffer" : 0,
            "byteLength" : 336,
            "byteOffset" : 45532
        },
        {
            "buffer" : 0,
            "byteLength" : 336,
            "byteOffset" : 45868
        }
    ],
    "buffers" : [
        {
            "byteLength" : 46204,
            "uri" : "data:application/octet-stream;base64,"
        }
    ]
}
