{
    "asset" : {
        "generator" : "Khronos glTF Blender I/O v0.9.36",
        "version" : "2.0"
    },
    "scene" : 0,
    "scenes" : [
        {
            "name" : "Scene",
            "nodes" : [
                0,
                1,
                2,
                3,
                4,
                5,
                6,
                7,
                8,
                9,
                10
            ]
        }
    ],
    "nodes" : [
        {
            "name" : "Light",
            "rotation" : [
                0.16907575726509094,
                0.7558803558349609,
                -0.27217137813568115,
                0.570947527885437
            ],
            "translation" : [
                4.076245307922363,
                5.903861999511719,
                -1.0054539442062378
            ]
        },
        {
            "name" : "Camera",
            "rotation" : [
                0.483536034822464,
                0.33687159419059753,
                -0.20870360732078552,
                0.7804827094078064
            ],
            "translation" : [
                7.358891487121582,
                4.958309173583984,
                6.925790786743164
            ]
        },
        {
            "mesh" : 0,
            "name" : "Cylinder",
            "translation" : [
                0,
                1,
                0
            ]
        },
        {
            "name" : "Camera.001",
            "rotation" : [
                0.8936147689819336,
                0.07476551830768585,
                -0.37226933240890503,
                0.23932908475399017
            ],
            "translation" : [
                7.117311000823975,
                5.376737594604492,
                7.073974132537842
            ]
        },
        {
            "name" : "BezierCircle",
            "rotation" : [
                0.6846068501472473,
                -0.012725831009447575,
                0.012725827284157276,
                0.7286903262138367
            ],
            "translation" : [
                2.8334336280822754,
                2.2969799041748047,
                -1.2960472106933594
            ]
        },
        {
            "mesh" : 1,
            "name" : "Cube",
            "rotation" : [
                0,
                -0.9799243807792664,
                0,
                0.19936996698379517
            ],
            "translation" : [
                0,
                2.751340627670288,
                3.9679508209228516
            ]
        },
        {
            "name" : "Armature",
            "scale" : [
                0.4099079370498657,
                0.4099079370498657,
                0.4099079370498657
            ],
            "translation" : [
                0,
                5.904953956604004,
                -6.210854530334473
            ]
        },
        {
            "mesh" : 2,
            "name" : "Plane",
            "scale" : [
                7.427513599395752,
                7.427513599395752,
                7.427513599395752
            ],
            "translation" : [
                0,
                9.480338096618652,
                0
            ]
        },
        {
            "name" : "Field"
        },
        {
            "mesh" : 3,
            "name" : "Cube.001",
            "translation" : [
                3.613234519958496,
                4.160998344421387,
                -2.7713398933410645
            ]
        },
        {
            "mesh" : 4,
            "name" : "Cube.002",
            "rotation" : [
                0,
                -0.41095542907714844,
                0,
                0.9116554260253906
            ],
            "translation" : [
                -4.892075538635254,
                5.8807806968688965,
                -1.736087441444397
            ]
        }
    ],
    "materials" : [
        {
            "doubleSided" : true,
            "name" : "Dark Blue",
            "pbrMetallicRoughness" : {
                "baseColorFactor" : [
                    0,
                    0.0331047922372818,
                    0.26635563373565674,
                    1
                ],
                "metallicFactor" : 0,
                "roughnessFactor" : 0.5
            }
        },
        {
            "doubleSided" : true,
            "name" : "Light Blue",
            "pbrMetallicRoughness" : {
                "baseColorFactor" : [
                    0,
                    0.2831488251686096,
                    0.7011020183563232,
                    1
                ],
                "metallicFactor" : 0,
                "roughnessFactor" : 0.5
            }
        },
        {
            "doubleSided" : true,
            "name" : "Material.002",
            "pbrMetallicRoughness" : {
                "baseColorFactor" : [
                    0.021218836307525635,
                    0.7758224606513977,
                    0.7991030216217041,
                    1
                ],
                "metallicFactor" : 0,
                "roughnessFactor" : 0.5
            }
        },
        {
            "alphaMode" : "BLEND",
            "doubleSided" : true,
            "name" : "Material.001",
            "pbrMetallicRoughness" : {
                "baseColorFactor" : [
                    0.800000011920929,
                    0.800000011920929,
                    0.800000011920929,
                    0
                ],
                "metallicFactor" : 0,
                "roughnessFactor" : 0.5
            }
        }
    ],
    "meshes" : [
        {
            "name" : "Cylinder",
            "primitives" : [
                {
                    "attributes" : {
                        "POSITION" : 0,
                        "NORMAL" : 1,
                        "TEXCOORD_0" : 2
                    },
                    "indices" : 3,
                    "material" : 0
                },
                {
                    "attributes" : {
                        "POSITION" : 4,
                        "NORMAL" : 5,
                        "TEXCOORD_0" : 6
                    },
                    "indices" : 7,
                    "material" : 1
                }
            ]
        },
        {
            "name" : "Cube",
            "primitives" : [
                {
                    "attributes" : {
                        "POSITION" : 8,
                        "NORMAL" : 9,
                        "TEXCOORD_0" : 10,
                        "JOINTS_0" : 11,
                        "WEIGHTS_0" : 12
                    },
                    "indices" : 13,
                    "material" : 2
                }
            ]
        },
        {
            "name" : "Plane",
            "primitives" : [
                {
                    "attributes" : {
                        "POSITION" : 14,
                        "NORMAL" : 15,
                        "TEXCOORD_0" : 16
                    },
                    "indices" : 17,
                    "material" : 3
                }
            ]
        },
        {
            "name" : "Cube.002",
            "primitives" : [
                {
                    "attributes" : {
                        "POSITION" : 18,
                        "NORMAL" : 19,
                        "TEXCOORD_0" : 20,
                        "JOINTS_0" : 21,
                        "WEIGHTS_0" : 22
                    },
                    "indices" : 13,
                    "material" : 2
                }
            ]
        },
        {
            "name" : "Cube.003",
            "primitives" : [
                {
                    "attributes" : {
                        "POSITION" : 23,
                        "NORMAL" : 24,
                        "TEXCOORD_0" : 25,
                        "JOINTS_0" : 26,
                        "WEIGHTS_0" : 27
                    },
                    "indices" : 13,
                    "material" : 2
                }
            ]
        }
    ],
    "accessors" : [
        {
            "bufferView" : 0,
            "componentType" : 5126,
            "count" : 238,
            "max" : [
                2.049762725830078,
                7.036534309387207,
                1.8942656517028809
            ],
            "min" : [
                -2.049762487411499,
                -1,
                -2.102476119995117
            ],
            "type" : "VEC3"
        },
        {
            "bufferView" : 1,
            "componentType" : 5126,
            "count" : 238,
            "type" : "VEC3"
        },
        {
            "bufferView" : 2,
            "componentType" : 5126,
            "count" : 238,
            "type" : "VEC2"
        },
        {
            "bufferView" : 3,
            "componentType" : 5123,
            "count" : 366,
            "type" : "SCALAR"
        },
        {
            "bufferView" : 4,
            "componentType" : 5126,
            "count" : 84,
            "max" : [
                1.471981406211853,
                6.1437225341796875,
                1.3603153228759766
            ],
            "min" : [
                -1.4719812870025635,
                -0.5,
                -1.5098360776901245
            ],
            "type" : "VEC3"
        },
        {
            "bufferView" : 5,
            "componentType" : 5126,
            "count" : 84,
            "type" : "VEC3"
        },
        {
            "bufferView" : 6,
            "componentType" : 5126,
            "count" : 84,
            "type" : "VEC2"
        },
        {
            "bufferView" : 7,
            "componentType" : 5123,
            "count" : 126,
            "type" : "SCALAR"
        },
        {
            "bufferView" : 8,
            "componentType" : 5126,
            "count" : 104,
            "max" : [
                0.3645891547203064,
                0.3035174012184143,
                1.1799678802490234
            ],
            "min" : [
                -0.3645891547203064,
                -0.010977327823638916,
                -1.1406331062316895
            ],
            "type" : "VEC3"
        },
        {
            "bufferView" : 9,
            "componentType" : 5126,
            "count" : 104,
            "type" : "VEC3"
        },
        {
            "bufferView" : 10,
            "componentType" : 5126,
            "count" : 104,
            "type" : "VEC2"
        },
        {
            "bufferView" : 11,
            "componentType" : 5123,
            "count" : 104,
            "type" : "VEC4"
        },
        {
            "bufferView" : 12,
            "componentType" : 5126,
            "count" : 104,
            "type" : "VEC4"
        },
        {
            "bufferView" : 13,
            "componentType" : 5123,
            "count" : 180,
            "type" : "SCALAR"
        },
        {
            "bufferView" : 14,
            "componentType" : 5126,
            "count" : 4,
            "max" : [
                1,
                0,
                1
            ],
            "min" : [
                -1,
                0,
                -1
            ],
            "type" : "VEC3"
        },
        {
            "bufferView" : 15,
            "componentType" : 5126,
            "count" : 4,
            "type" : "VEC3"
        },
        {
            "bufferView" : 16,
            "componentType" : 5126,
            "count" : 4,
            "type" : "VEC2"
        },
        {
            "bufferView" : 17,
            "componentType" : 5123,
            "count" : 6,
            "type" : "SCALAR"
        },
        {
            "bufferView" : 18,
            "componentType" : 5126,
            "count" : 104,
            "max" : [
                0.3645891547203064,
                0.3035174012184143,
                1.1799678802490234
            ],
            "min" : [
                -0.3645891547203064,
                -0.010977327823638916,
                -1.1406331062316895
            ],
            "type" : "VEC3"
        },
        {
            "bufferView" : 19,
            "componentType" : 5126,
            "count" : 104,
            "type" : "VEC3"
        },
        {
            "bufferView" : 20,
            "componentType" : 5126,
            "count" : 104,
            "type" : "VEC2"
        },
        {
            "bufferView" : 21,
            "componentType" : 5123,
            "count" : 104,
            "type" : "VEC4"
        },
        {
            "bufferView" : 22,
            "componentType" : 5126,
            "count" : 104,
            "type" : "VEC4"
        },
        {
            "bufferView" : 23,
            "componentType" : 5126,
            "count" : 104,
            "max" : [
                0.3645891547203064,
                0.3035174012184143,
                1.1799678802490234
            ],
            "min" : [
                -0.3645891547203064,
                -0.010977327823638916,
                -1.1406331062316895
            ],
            "type" : "VEC3"
        },
        {
            "bufferView" : 24,
            "componentType" : 5126,
            "count" : 104,
            "type" : "VEC3"
        },
        {
            "bufferView" : 25,
            "componentType" : 5126,
            "count" : 104,
            "type" : "VEC2"
        },
        {
            "bufferView" : 26,
            "componentType" : 5123,
            "count" : 104,
            "type" : "VEC4"
        },
        {
            "bufferView" : 27,
            "componentType" : 5126,
            "count" : 104,
            "type" : "VEC4"
        }
    ],
    "bufferViews" : [
        {
            "buffer" : 0,
            "byteLength" : 2856,
            "byteOffset" : 0
        },
        {
            "buffer" : 0,
            "byteLength" : 2856,
            "byteOffset" : 2856
        },
        {
            "buffer" : 0,
            "byteLength" : 1904,
            "byteOffset" : 5712
        },
        {
            "buffer" : 0,
            "byteLength" : 732,
            "byteOffset" : 7616
        },
        {
            "buffer" : 0,
            "byteLength" : 1008,
            "byteOffset" : 8348
        },
        {
            "buffer" : 0,
            "byteLength" : 1008,
            "byteOffset" : 9356
        },
        {
            "buffer" : 0,
            "byteLength" : 672,
            "byteOffset" : 10364
        },
        {
            "buffer" : 0,
            "byteLength" : 252,
            "byteOffset" : 11036
        },
        {
            "buffer" : 0,
            "byteLength" : 1248,
            "byteOffset" : 11288
        },
        {
            "buffer" : 0,
            "byteLength" : 1248,
            "byteOffset" : 12536
        },
        {
            "buffer" : 0,
            "byteLength" : 832,
            "byteOffset" : 13784
        },
        {
            "buffer" : 0,
            "byteLength" : 832,
            "byteOffset" : 14616
        },
        {
            "buffer" : 0,
            "byteLength" : 1664,
            "byteOffset" : 15448
        },
        {
            "buffer" : 0,
            "byteLength" : 360,
            "byteOffset" : 17112
        },
        {
            "buffer" : 0,
            "byteLength" : 48,
            "byteOffset" : 17472
        },
        {
            "buffer" : 0,
            "byteLength" : 48,
            "byteOffset" : 17520
        },
        {
            "buffer" : 0,
            "byteLength" : 32,
            "byteOffset" : 17568
        },
        {
            "buffer" : 0,
            "byteLength" : 12,
            "byteOffset" : 17600
        },
        {
            "buffer" : 0,
            "byteLength" : 1248,
            "byteOffset" : 17612
        },
        {
            "buffer" : 0,
            "byteLength" : 1248,
            "byteOffset" : 18860
        },
        {
            "buffer" : 0,
            "byteLength" : 832,
            "byteOffset" : 20108
        },
        {
            "buffer" : 0,
            "byteLength" : 832,
            "byteOffset" : 20940
        },
        {
            "buffer" : 0,
            "byteLength" : 1664,
            "byteOffset" : 21772
        },
        {
            "buffer" : 0,
            "byteLength" : 1248,
            "byteOffset" : 23436
        },
        {
            "buffer" : 0,
            "byteLength" : 1248,
            "byteOffset" : 24684
        },
        {
            "buffer" : 0,
            "byteLength" : 832,
            "byteOffset" : 25932
        },
        {
            "buffer" : 0,
            "byteLength" : 832,
            "byteOffset" : 26764
        },
        {
            "buffer" : 0,
            "byteLength" : 1664,
            "byteOffset" : 27596
        }
    ],
    "buffers" : [
        {
            "byteLength" : 29260,
            "uri" : "data:application/octet-stream;base64,"
        }
    ]
}
