{
    "asset" : {
        "generator" : "Khronos glTF Blender I/O v0.9.36",
        "version" : "2.0"
    },
    "scene" : 0,
    "scenes" : [
        {
            "name" : "Scene",
            "nodes" : [
                0,
                1,
                2
            ]
        }
    ],
    "nodes" : [
        {
            "name" : "Camera",
            "rotation" : [
                0.46264970302581787,
                0.3161012530326843,
                -0.21036703884601593,
                0.8011123538017273
            ],
            "translation" : [
                7.117311000823975,
                5.37673807144165,
                7.073972225189209
            ]
        },
        {
            "mesh" : 0,
            "name" : "Goldfish_01",
            "rotation" : [
                0.5260055661201477,
                0.4667758643627167,
                -0.4419233202934265,
                0.5569040775299072
            ]
        },
        {
            "name" : "BezierCircle",
            "rotation" : [
                -0.031171787530183792,
                -0.01799704134464264,
                0,
                0.999351978302002
            ],
            "translation" : [
                2.8334336280822754,
                2.2969794273376465,
                -1.2960474491119385
            ]
        }
    ],
    "materials" : [
        {
            "alphaMode" : "BLEND",
            "doubleSided" : true,
            "name" : "FF5722",
            "pbrMetallicRoughness" : {
                "baseColorFactor" : [
                    1,
                    0.34117600321769714,
                    0.1333329975605011,
                    1
                ],
                "metallicFactor" : 1,
                "roughnessFactor" : 0.6732679605484009
            }
        },
        {
            "alphaMode" : "BLEND",
            "doubleSided" : true,
            "name" : "1A1A1A",
            "pbrMetallicRoughness" : {
                "baseColorFactor" : [
                    0.10196100175380707,
                    0.10196100175380707,
                    0.10196100175380707,
                    1
                ],
                "metallicFactor" : 1,
                "roughnessFactor" : 0.6732679605484009
            }
        },
        {
            "alphaMode" : "BLEND",
            "doubleSided" : true,
            "name" : "FFEB3B",
            "pbrMetallicRoughness" : {
                "baseColorFactor" : [
                    1,
                    0.9215689897537231,
                    0.23137299716472626,
                    1
                ],
                "metallicFactor" : 1,
                "roughnessFactor" : 0.6732679605484009
            }
        }
    ],
    "meshes" : [
        {
            "name" : "Goldfish_01",
            "primitives" : [
                {
                    "attributes" : {
                        "POSITION" : 0,
                        "NORMAL" : 1,
                        "JOINTS_0" : 2,
                        "WEIGHTS_0" : 3
                    },
                    "indices" : 4,
                    "material" : 0
                },
                {
                    "attributes" : {
                        "POSITION" : 5,
                        "NORMAL" : 6,
                        "JOINTS_0" : 7,
                        "WEIGHTS_0" : 8
                    },
                    "indices" : 9,
                    "material" : 1
                },
                {
                    "attributes" : {
                        "POSITION" : 10,
                        "NORMAL" : 11,
                        "JOINTS_0" : 12,
                        "WEIGHTS_0" : 13
                    },
                    "indices" : 14,
                    "material" : 2
                }
            ]
        }
    ],
    "accessors" : [
        {
            "bufferView" : 0,
            "componentType" : 5126,
            "count" : 144,
            "max" : [
                2.071629047393799,
                4.043041229248047,
                -0.6402860283851624
            ],
            "min" : [
                -2.071629047393799,
                -4.102083206176758,
                -7.41581392288208
            ],
            "type" : "VEC3"
        },
        {
            "bufferView" : 1,
            "componentType" : 5126,
            "count" : 144,
            "type" : "VEC3"
        },
        {
            "bufferView" : 2,
            "componentType" : 5123,
            "count" : 144,
            "type" : "VEC4"
        },
        {
            "bufferView" : 3,
            "componentType" : 5126,
            "count" : 144,
            "type" : "VEC4"
        },
        {
            "bufferView" : 4,
            "componentType" : 5123,
            "count" : 228,
            "type" : "SCALAR"
        },
        {
            "bufferView" : 5,
            "componentType" : 5126,
            "count" : 192,
            "max" : [
                2.1592578887939453,
                3.898777961730957,
                -2.8282690048217773
            ],
            "min" : [
                -2.159256935119629,
                0.5785499811172485,
                -4.731388092041016
            ],
            "type" : "VEC3"
        },
        {
            "bufferView" : 6,
            "componentType" : 5126,
            "count" : 192,
            "type" : "VEC3"
        },
        {
            "bufferView" : 7,
            "componentType" : 5123,
            "count" : 192,
            "type" : "VEC4"
        },
        {
            "bufferView" : 8,
            "componentType" : 5126,
            "count" : 192,
            "type" : "VEC4"
        },
        {
            "bufferView" : 9,
            "componentType" : 5123,
            "count" : 342,
            "type" : "SCALAR"
        },
        {
            "bufferView" : 10,
            "componentType" : 5126,
            "count" : 337,
            "max" : [
                2.4164628982543945,
                2.403083086013794,
                0.7488499879837036
            ],
            "min" : [
                -2.3096959590911865,
                -8.409421920776367,
                -10.671428680419922
            ],
            "type" : "VEC3"
        },
        {
            "bufferView" : 11,
            "componentType" : 5126,
            "count" : 337,
            "type" : "VEC3"
        },
        {
            "bufferView" : 12,
            "componentType" : 5123,
            "count" : 337,
            "type" : "VEC4"
        },
        {
            "bufferView" : 13,
            "componentType" : 5126,
            "count" : 337,
            "type" : "VEC4"
        },
        {
            "bufferView" : 14,
            "componentType" : 5123,
            "count" : 594,
            "type" : "SCALAR"
        }
    ],
    "bufferViews" : [
        {
            "buffer" : 0,
            "byteLength" : 1728,
            "byteOffset" : 0
        },
        {
            "buffer" : 0,
            "byteLength" : 1728,
            "byteOffset" : 1728
        },
        {
            "buffer" : 0,
            "byteLength" : 1152,
            "byteOffset" : 3456
        },
        {
            "buffer" : 0,
            "byteLength" : 2304,
            "byteOffset" : 4608
        },
        {
            "buffer" : 0,
            "byteLength" : 456,
            "byteOffset" : 6912
        },
        {
            "buffer" : 0,
            "byteLength" : 2304,
            "byteOffset" : 7368
        },
        {
            "buffer" : 0,
            "byteLength" : 2304,
            "byteOffset" : 9672
        },
        {
            "buffer" : 0,
            "byteLength" : 1536,
            "byteOffset" : 11976
        },
        {
            "buffer" : 0,
            "byteLength" : 3072,
            "byteOffset" : 13512
        },
        {
            "buffer" : 0,
            "byteLength" : 684,
            "byteOffset" : 16584
        },
        {
            "buffer" : 0,
            "byteLength" : 4044,
            "byteOffset" : 17268
        },
        {
            "buffer" : 0,
            "byteLength" : 4044,
            "byteOffset" : 21312
        },
        {
            "buffer" : 0,
            "byteLength" : 2696,
            "byteOffset" : 25356
        },
        {
            "buffer" : 0,
            "byteLength" : 5392,
            "byteOffset" : 28052
        },
        {
            "buffer" : 0,
            "byteLength" : 1188,
            "byteOffset" : 33444
        }
    ],
    "buffers" : [
        {
            "byteLength" : 34632,
            "uri" : "data:application/octet-stream;base64,"
        }
    ]
}
