{
    "asset" : {
        "generator" : "Khronos glTF Blender I/O v0.9.36",
        "version" : "2.0"
    },
    "scene" : 0,
    "scenes" : [
        {
            "name" : "Scene",
            "nodes" : [
                0,
                1,
                9,
                10
            ]
        }
    ],
    "nodes" : [
        {
            "name" : "Light",
            "rotation" : [
                0.16907575726509094,
                0.7558803558349609,
                -0.27217137813568115,
                0.570947527885437
            ],
            "translation" : [
                4.076245307922363,
                5.903861999511719,
                -1.0054539442062378
            ]
        },
        {
            "name" : "Camera",
            "rotation" : [
                0.483536034822464,
                0.33687159419059753,
                -0.20870360732078552,
                0.7804827094078064
            ],
            "translation" : [
                7.358891487121582,
                4.958309173583984,
                6.925790786743164
            ]
        },
        {
            "name" : "Bone.005",
            "rotation" : [
                0.04294299706816673,
                0,
                0,
                0.9990776181221008
            ],
            "scale" : [
                1,
                0.9999999403953552,
                1
            ],
            "translation" : [
                0,
                0.6460204124450684,
                -2.3283064365386963e-10
            ]
        },
        {
            "children" : [
                2
            ],
            "name" : "Bone.004",
            "translation" : [
                0,
                1.5470490455627441,
                -2.3283064365386963e-10
            ]
        },
        {
            "children" : [
                3
            ],
            "name" : "Bone.003",
            "translation" : [
                0,
                1.688720464706421,
                -2.3283064365386963e-10
            ]
        },
        {
            "children" : [
                4
            ],
            "name" : "Bone.002",
            "translation" : [
                0,
                1.575382947921753,
                -2.3283064365386963e-10
            ]
        },
        {
            "children" : [
                5
            ],
            "name" : "Bone.001",
            "rotation" : [
                0.0019034183351323009,
                0,
                0,
                0.9999982118606567
            ],
            "scale" : [
                1,
                0.9999998211860657,
                0.9999998807907104
            ],
            "translation" : [
                0,
                0.9999998807907104,
                0
            ]
        },
        {
            "children" : [
                6
            ],
            "name" : "Bone",
            "rotation" : [
                -0.7084514498710632,
                0,
                0,
                0.705759584903717
            ],
            "scale" : [
                1,
                1.0000001192092896,
                0.9999999403953552
            ]
        },
        {
            "mesh" : 0,
            "name" : "Mesh_Fish",
            "rotation" : [
                0.7071068286895752,
                0,
                0,
                0.7071067094802856
            ],
            "skin" : 0,
            "translation" : [
                -1.3080625534057617,
                0.5888547897338867,
                -11.045608520507812
            ]
        },
        {
            "children" : [
                8,
                7
            ],
            "name" : "Armature",
            "rotation" : [
                0,
                -0.7071067690849304,
                0,
                0.7071067690849304
            ],
            "scale" : [
                0.5,
                0.5,
                0.5
            ],
            "translation" : [
                0,
                0,
                -0.0005412101745605469
            ]
        },
        {
            "name" : "BezierCircle",
            "scale" : [
                6.960918426513672,
                1,
                6.97429895401001
            ]
        }
    ],
    "animations" : [
        {
            "channels" : [
                {
                    "sampler" : 0,
                    "target" : {
                        "node" : 8,
                        "path" : "translation"
                    }
                },
                {
                    "sampler" : 1,
                    "target" : {
                        "node" : 8,
                        "path" : "rotation"
                    }
                }
            ],
            "name" : "Mesh_FishAction",
            "samplers" : [
                {
                    "input" : 7,
                    "interpolation" : "STEP",
                    "output" : 8
                },
                {
                    "input" : 7,
                    "interpolation" : "STEP",
                    "output" : 9
                }
            ]
        },
        {
            "channels" : [
                {
                    "sampler" : 0,
                    "target" : {
                        "node" : 7,
                        "path" : "translation"
                    }
                },
                {
                    "sampler" : 1,
                    "target" : {
                        "node" : 7,
                        "path" : "rotation"
                    }
                },
                {
                    "sampler" : 2,
                    "target" : {
                        "node" : 6,
                        "path" : "translation"
                    }
                },
                {
                    "sampler" : 3,
                    "target" : {
                        "node" : 6,
                        "path" : "rotation"
                    }
                },
                {
                    "sampler" : 4,
                    "target" : {
                        "node" : 5,
                        "path" : "translation"
                    }
                },
                {
                    "sampler" : 5,
                    "target" : {
                        "node" : 5,
                        "path" : "rotation"
                    }
                },
                {
                    "sampler" : 6,
                    "target" : {
                        "node" : 4,
                        "path" : "translation"
                    }
                },
                {
                    "sampler" : 7,
                    "target" : {
                        "node" : 4,
                        "path" : "rotation"
                    }
                },
                {
                    "sampler" : 8,
                    "target" : {
                        "node" : 3,
                        "path" : "translation"
                    }
                },
                {
                    "sampler" : 9,
                    "target" : {
                        "node" : 3,
                        "path" : "rotation"
                    }
                },
                {
                    "sampler" : 10,
                    "target" : {
                        "node" : 2,
                        "path" : "translation"
                    }
                },
                {
                    "sampler" : 11,
                    "target" : {
                        "node" : 2,
                        "path" : "rotation"
                    }
                },
                {
                    "sampler" : 12,
                    "target" : {
                        "node" : 9,
                        "path" : "translation"
                    }
                },
                {
                    "sampler" : 13,
                    "target" : {
                        "node" : 9,
                        "path" : "rotation"
                    }
                }
            ],
            "name" : "ArmatureAction",
            "samplers" : [
                {
                    "input" : 10,
                    "interpolation" : "LINEAR",
                    "output" : 11
                },
                {
                    "input" : 10,
                    "interpolation" : "LINEAR",
                    "output" : 12
                },
                {
                    "input" : 10,
                    "interpolation" : "LINEAR",
                    "output" : 13
                },
                {
                    "input" : 10,
                    "interpolation" : "LINEAR",
                    "output" : 14
                },
                {
                    "input" : 10,
                    "interpolation" : "LINEAR",
                    "output" : 15
                },
                {
                    "input" : 10,
                    "interpolation" : "LINEAR",
                    "output" : 16
                },
                {
                    "input" : 10,
                    "interpolation" : "LINEAR",
                    "output" : 17
                },
                {
                    "input" : 10,
                    "interpolation" : "LINEAR",
                    "output" : 18
                },
                {
                    "input" : 10,
                    "interpolation" : "LINEAR",
                    "output" : 19
                },
                {
                    "input" : 10,
                    "interpolation" : "LINEAR",
                    "output" : 20
                },
                {
                    "input" : 10,
                    "interpolation" : "LINEAR",
                    "output" : 21
                },
                {
                    "input" : 10,
                    "interpolation" : "LINEAR",
                    "output" : 22
                },
                {
                    "input" : 23,
                    "interpolation" : "LINEAR",
                    "output" : 24
                },
                {
                    "input" : 23,
                    "interpolation" : "LINEAR",
                    "output" : 25
                }
            ]
        }
    ],
    "materials" : [
        {
            "alphaMode" : "BLEND",
            "doubleSided" : true,
            "name" : "lambert2SG.001",
            "pbrMetallicRoughness" : {
                "baseColorTexture" : {
                    "index" : 0,
                    "texCoord" : 0
                },
                "metallicFactor" : 0,
                "roughnessFactor" : 1
            }
        }
    ],
    "meshes" : [
        {
            "name" : "Mesh_Fish",
            "primitives" : [
                {
                    "attributes" : {
                        "POSITION" : 0,
                        "NORMAL" : 1,
                        "TEXCOORD_0" : 2,
                        "JOINTS_0" : 3,
                        "WEIGHTS_0" : 4
                    },
                    "indices" : 5,
                    "material" : 0
                }
            ]
        }
    ],
    "textures" : [
        {
            "source" : 0
        }
    ],
    "images" : [
        {
            "bufferView" : 6,
            "mimeType" : "image/png",
            "name" : "Tex_Salmon"
        }
    ],
    "skins" : [
        {
            "inverseBindMatrices" : 6,
            "joints" : [
                7,
                6,
                5,
                4,
                3,
                2
            ],
            "name" : "Armature"
        }
    ],
    "accessors" : [
        {
            "bufferView" : 0,
            "componentType" : 5126,
            "count" : 962,
            "max" : [
                2.3003664016723633,
                11.677961349487305,
                2.0144729614257812
            ],
            "min" : [
                0.33154773712158203,
                2.8651962280273438,
                -0.9601535797119141
            ],
            "type" : "VEC3"
        },
        {
            "bufferView" : 1,
            "componentType" : 5126,
            "count" : 962,
            "type" : "VEC3"
        },
        {
            "bufferView" : 2,
            "componentType" : 5126,
            "count" : 962,
            "type" : "VEC2"
        },
        {
            "bufferView" : 3,
            "componentType" : 5123,
            "count" : 962,
            "type" : "VEC4"
        },
        {
            "bufferView" : 4,
            "componentType" : 5126,
            "count" : 962,
            "type" : "VEC4"
        },
        {
            "bufferView" : 5,
            "componentType" : 5123,
            "count" : 1518,
            "type" : "SCALAR"
        },
        {
            "bufferView" : 7,
            "componentType" : 5126,
            "count" : 6,
            "type" : "MAT4"
        },
        {
            "bufferView" : 8,
            "componentType" : 5126,
            "count" : 1,
            "max" : [
                0.041666666666666664
            ],
            "min" : [
                0.041666666666666664
            ],
            "type" : "SCALAR"
        },
        {
            "bufferView" : 9,
            "componentType" : 5126,
            "count" : 1,
            "type" : "VEC3"
        },
        {
            "bufferView" : 10,
            "componentType" : 5126,
            "count" : 1,
            "type" : "VEC4"
        },
        {
            "bufferView" : 11,
            "componentType" : 5126,
            "count" : 7,
            "max" : [
                2
            ],
            "min" : [
                0.041666666666666664
            ],
            "type" : "SCALAR"
        },
        {
            "bufferView" : 12,
            "componentType" : 5126,
            "count" : 7,
            "type" : "VEC3"
        },
        {
            "bufferView" : 13,
            "componentType" : 5126,
            "count" : 7,
            "type" : "VEC4"
        },
        {
            "bufferView" : 14,
            "componentType" : 5126,
            "count" : 7,
            "type" : "VEC3"
        },
        {
            "bufferView" : 15,
            "componentType" : 5126,
            "count" : 7,
            "type" : "VEC4"
        },
        {
            "bufferView" : 16,
            "componentType" : 5126,
            "count" : 7,
            "type" : "VEC3"
        },
        {
            "bufferView" : 17,
            "componentType" : 5126,
            "count" : 7,
            "type" : "VEC4"
        },
        {
            "bufferView" : 18,
            "componentType" : 5126,
            "count" : 7,
            "type" : "VEC3"
        },
        {
            "bufferView" : 19,
            "componentType" : 5126,
            "count" : 7,
            "type" : "VEC4"
        },
        {
            "bufferView" : 20,
            "componentType" : 5126,
            "count" : 7,
            "type" : "VEC3"
        },
        {
            "bufferView" : 21,
            "componentType" : 5126,
            "count" : 7,
            "type" : "VEC4"
        },
        {
            "bufferView" : 22,
            "componentType" : 5126,
            "count" : 7,
            "type" : "VEC3"
        },
        {
            "bufferView" : 23,
            "componentType" : 5126,
            "count" : 7,
            "type" : "VEC4"
        },
        {
            "bufferView" : 24,
            "componentType" : 5126,
            "count" : 5,
            "max" : [
                2
            ],
            "min" : [
                0.041666666666666664
            ],
            "type" : "SCALAR"
        },
        {
            "bufferView" : 25,
            "componentType" : 5126,
            "count" : 5,
            "type" : "VEC3"
        },
        {
            "bufferView" : 26,
            "componentType" : 5126,
            "count" : 5,
            "type" : "VEC4"
        }
    ],
    "bufferViews" : [
        {
            "buffer" : 0,
            "byteLength" : 11544,
            "byteOffset" : 0
        },
        {
            "buffer" : 0,
            "byteLength" : 11544,
            "byteOffset" : 11544
        },
        {
            "buffer" : 0,
            "byteLength" : 7696,
            "byteOffset" : 23088
        },
        {
            "buffer" : 0,
            "byteLength" : 7696,
            "byteOffset" : 30784
        },
        {
            "buffer" : 0,
            "byteLength" : 15392,
            "byteOffset" : 38480
        },
        {
            "buffer" : 0,
            "byteLength" : 3036,
            "byteOffset" : 53872
        },
        {
            "buffer" : 0,
            "byteLength" : 113,
            "byteOffset" : 56908
        },
        {
            "buffer" : 0,
            "byteLength" : 384,
            "byteOffset" : 57024
        },
        {
            "buffer" : 0,
            "byteLength" : 4,
            "byteOffset" : 57408
        },
        {
            "buffer" : 0,
            "byteLength" : 12,
            "byteOffset" : 57412
        },
        {
            "buffer" : 0,
            "byteLength" : 16,
            "byteOffset" : 57424
        },
        {
            "buffer" : 0,
            "byteLength" : 28,
            "byteOffset" : 57440
        },
        {
            "buffer" : 0,
            "byteLength" : 84,
            "byteOffset" : 57468
        },
        {
            "buffer" : 0,
            "byteLength" : 112,
            "byteOffset" : 57552
        },
        {
            "buffer" : 0,
            "byteLength" : 84,
            "byteOffset" : 57664
        },
        {
            "buffer" : 0,
            "byteLength" : 112,
            "byteOffset" : 57748
        },
        {
            "buffer" : 0,
            "byteLength" : 84,
            "byteOffset" : 57860
        },
        {
            "buffer" : 0,
            "byteLength" : 112,
            "byteOffset" : 57944
        },
        {
            "buffer" : 0,
            "byteLength" : 84,
            "byteOffset" : 58056
        },
        {
            "buffer" : 0,
            "byteLength" : 112,
            "byteOffset" : 58140
        },
        {
            "buffer" : 0,
            "byteLength" : 84,
            "byteOffset" : 58252
        },
        {
            "buffer" : 0,
            "byteLength" : 112,
            "byteOffset" : 58336
        },
        {
            "buffer" : 0,
            "byteLength" : 84,
            "byteOffset" : 58448
        },
        {
            "buffer" : 0,
            "byteLength" : 112,
            "byteOffset" : 58532
        },
        {
            "buffer" : 0,
            "byteLength" : 20,
            "byteOffset" : 58644
        },
        {
            "buffer" : 0,
            "byteLength" : 60,
            "byteOffset" : 58664
        },
        {
            "buffer" : 0,
            "byteLength" : 80,
            "byteOffset" : 58724
        }
    ],
    "buffers" : [
        {
            "byteLength" : 58804,
            "uri" : "data:application/octet-stream;base64,"
        }
    ]
}
